<?xml version="1.0" encoding="utf-8"?>
<!-- Generator: Adobe Illustrator 22.0.1, SVG Export Plug-In . SVG Version: 6.00 Build 0)  -->
<svg version="1.1" id="blossom" xmlns="http://www.w3.org/2000/svg" xmlns:xlink="http://www.w3.org/1999/xlink" x="0px" y="0px"
	 viewBox="0 0 540 280" style="enable-background:new 0 0 540 280;" xml:space="preserve">
<style type="text/css">
	.st0{fill:#179D82;}
	.st1{fill:#26FFD3;}
	.st2{opacity:0.66;fill:#179D82;}
	.st3{opacity:0.8;fill:#1ECCA9;}
	.st4{fill:#FF5500;}
</style>
<g>
	<path class="st0" d="M260,178h7.3v16.9h0.1c2-3.2,6.1-5.2,9.9-5.2c10.4,0,15.5,7.9,15.5,17.6c0,8.9-4.5,17.3-14.3,17.3
		c-4.5,0-9.3-1.1-11.5-5.4h-0.1v4.5H260V178z M276.4,195.5c-6.1,0-9.3,4.7-9.3,11.7c0,6.7,3.4,11.6,9.3,11.6c6.7,0,9.2-5.9,9.2-11.6
		C285.5,201.2,282.4,195.5,276.4,195.5z"/>
	<path class="st0" d="M299.1,178h7.3v45.7h-7.3V178z"/>
	<path class="st0" d="M312.8,207.2c0-10.1,6.1-17.4,16.7-17.4s16.7,7.3,16.7,17.4c0,10.2-6.1,17.5-16.7,17.5
		S312.8,217.3,312.8,207.2z M338.9,207.2c0-5.7-2.9-11.6-9.4-11.6s-9.4,6-9.4,11.6c0,5.8,2.9,11.7,9.4,11.7S338.9,212.9,338.9,207.2
		z"/>
	<path class="st0" d="M357.8,213.1c0.4,4.2,3.6,5.8,7.5,5.8c2.8,0,7.6-0.6,7.4-4.4c-0.2-3.8-5.5-4.3-10.8-5.5
		c-5.4-1.2-10.6-3.1-10.6-9.8c0-7.2,7.8-9.5,13.8-9.5c6.8,0,12.9,2.8,13.8,10.2h-7.6c-0.6-3.5-3.5-4.4-6.7-4.4c-2.1,0-6,0.5-6,3.4
		c0,3.6,5.4,4.1,10.8,5.3c5.3,1.2,10.7,3.1,10.7,9.7c0,7.9-7.9,10.8-14.8,10.8c-8.3,0-14.5-3.7-14.7-11.5H357.8z"/>
	<path class="st0" d="M391,213.1c0.4,4.2,3.6,5.8,7.5,5.8c2.8,0,7.6-0.6,7.4-4.4c-0.2-3.8-5.5-4.3-10.8-5.5
		c-5.4-1.2-10.6-3.1-10.6-9.8c0-7.2,7.8-9.5,13.8-9.5c6.8,0,12.9,2.8,13.8,10.2h-7.6c-0.6-3.5-3.5-4.4-6.7-4.4c-2.1,0-6,0.5-6,3.4
		c0,3.6,5.4,4.1,10.8,5.3c5.3,1.2,10.7,3.1,10.7,9.7c0,7.9-7.9,10.8-14.8,10.8c-8.3,0-14.5-3.7-14.7-11.5H391z"/>
	<path class="st0" d="M417.2,207.2c0-10.1,6.1-17.4,16.7-17.4s16.7,7.3,16.7,17.4c0,10.2-6.1,17.5-16.7,17.5
		S417.2,217.3,417.2,207.2z M443.3,207.2c0-5.7-2.9-11.6-9.4-11.6s-9.4,6-9.4,11.6c0,5.8,2.9,11.7,9.4,11.7S443.3,212.9,443.3,207.2
		z"/>
	<path class="st0" d="M456.7,190.6h6.9v4.6h0.2c2.2-3.3,4.9-5.5,10.2-5.5c4,0,7.8,1.7,9.3,5.5c2.4-3.4,5.6-5.5,10.4-5.5
		c7,0,11.1,3.1,11.1,11.1v22.8h-7.3v-19.3c0-5.2-0.3-8.9-6-8.9c-4.9,0-7,3.3-7,8.8v19.4h-7.3v-21.2c0-4.5-1.4-7-5.8-7
		c-3.8,0-7.2,3.1-7.2,8.6v19.6h-7.3V190.6z"/>
</g>
<path class="st0" d="M254.1,130l-48.5-83.9c-3.6-6.2-10.2-10-17.3-10H91.5c-7.1,0-13.7,3.8-17.3,10L25.7,130c-3.6,6.2-3.6,13.8,0,20
	l48.5,83.9c3.6,6.2,10.2,10,17.3,10h96.9c7.1,0,13.7-3.8,17.3-10l48.5-83.9C257.7,143.8,257.7,136.2,254.1,130z M250.7,148
	l-48.5,83.9c-2.8,4.9-8.2,8-13.9,8H91.5c-5.7,0-11-3.1-13.9-8L29.1,148c-2.8-4.9-2.8-11.1,0-16l48.5-83.9c2.8-4.9,8.2-8,13.9-8h96.9
	c5.7,0,11,3.1,13.9,8l48.5,83.9C253.5,136.9,253.5,143.1,250.7,148z"/>
<g>
	<path class="st0" d="M156.4,136.4c-10.2-28.1-37-54-64.5-58.9C74,98.9,70.1,135.9,80.4,164c10.2,28.1,32,40.2,59.5,45.1
		C157.8,187.7,166.6,164.5,156.4,136.4z"/>
	<path class="st1" d="M199.3,164c10.2-28.1,6.4-65.2-11.5-86.6c-27.5,4.9-54.3,30.8-64.5,58.9c-10.2,28.1-1.4,51.3,16.6,72.8
		C167.3,204.3,189.1,192.2,199.3,164z"/>
	<path class="st2" d="M156.4,136.4c-10.2-28.1-37-54-64.5-58.9C74,98.9,70.1,135.9,80.4,164c10.2,28.1,32,40.2,59.5,45.1
		C157.8,187.7,166.6,164.5,156.4,136.4z"/>
	<path class="st3" d="M180.3,146.4c0-29.9-16.3-63.4-40.5-77.4c-24.2,14-40.5,47.5-40.5,77.4c0,29.9,16.3,48.7,40.5,62.7
		C164,195.1,180.3,176.4,180.3,146.4z"/>
	<path class="st4" d="M139.8,107.9c6.2-7.5,13.4-14.1,21.2-19.3c-6-8.2-13.2-15-21.2-19.7c-8.1,4.7-15.2,11.5-21.2,19.7
		C126.4,93.9,133.6,100.5,139.8,107.9z"/>
</g>
</svg>
