<?xml version="1.0" encoding="utf-8"?>
<!-- Generator: Adobe Illustrator 22.0.1, SVG Export Plug-In . SVG Version: 6.00 Build 0)  -->
<svg version="1.1" id="blossom" xmlns="http://www.w3.org/2000/svg" xmlns:xlink="http://www.w3.org/1999/xlink" x="0px" y="0px"
	 viewBox="0 0 280 280" style="enable-background:new 0 0 280 280;" xml:space="preserve">
<style type="text/css">
	.st0{fill:#26FFD3;}
	.st1{fill:#179D82;}
	.st2{opacity:0.66;fill:#179D82;}
	.st3{opacity:0.8;fill:#1ECCA9;}
	.st4{fill:#FF5500;}
</style>
<path class="st0" d="M254.1,130l-48.5-83.9c-3.6-6.2-10.2-10-17.3-10H91.5c-7.1,0-13.7,3.8-17.3,10L25.7,130c-3.6,6.2-3.6,13.8,0,20
	l48.5,83.9c3.6,6.2,10.2,10,17.3,10h96.9c7.1,0,13.7-3.8,17.3-10l48.5-83.9C257.7,143.8,257.7,136.2,254.1,130z M250.7,148
	l-48.5,83.9c-2.8,4.9-8.2,8-13.9,8H91.5c-5.7,0-11-3.1-13.9-8L29.1,148c-2.8-4.9-2.8-11.1,0-16l48.5-83.9c2.8-4.9,8.2-8,13.9-8h96.9
	c5.7,0,11,3.1,13.9,8l48.5,83.9C253.5,136.9,253.5,143.1,250.7,148z"/>
<g>
	<path class="st1" d="M156.4,136.4c-10.2-28.1-37-54-64.5-58.9C74,98.9,70.1,135.9,80.4,164c10.2,28.1,32,40.2,59.5,45.1
		C157.8,187.7,166.6,164.5,156.4,136.4z"/>
	<path class="st0" d="M199.3,164c10.2-28.1,6.4-65.2-11.5-86.6c-27.5,4.9-54.3,30.8-64.5,58.9c-10.2,28.1-1.4,51.3,16.6,72.8
		C167.3,204.3,189.1,192.2,199.3,164z"/>
	<path class="st2" d="M156.4,136.4c-10.2-28.1-37-54-64.5-58.9C74,98.9,70.1,135.9,80.4,164c10.2,28.1,32,40.2,59.5,45.1
		C157.8,187.7,166.6,164.5,156.4,136.4z"/>
	<path class="st3" d="M180.3,146.4c0-29.9-16.3-63.4-40.5-77.4c-24.2,14-40.5,47.5-40.5,77.4c0,29.9,16.3,48.7,40.5,62.7
		C164,195.1,180.3,176.4,180.3,146.4z"/>
	<path class="st4" d="M139.8,107.9c6.2-7.5,13.4-14.1,21.2-19.3c-6-8.2-13.2-15-21.2-19.7c-8.1,4.7-15.2,11.5-21.2,19.7
		C126.4,93.9,133.6,100.5,139.8,107.9z"/>
</g>
</svg>
